<?xml version="1.0" encoding="UTF-8" standalone="no"?>
<!-- Created with Inkscape (http://www.inkscape.org/) -->

<svg
   width="102.54263mm"
   height="14.689554mm"
   viewBox="0 0 102.54263 14.689554"
   version="1.1"
   id="svg1"
   xml:space="preserve"
   xmlns="http://www.w3.org/2000/svg"
   xmlns:svg="http://www.w3.org/2000/svg"><defs
     id="defs1" /><g
     id="layer1"
     transform="translate(-38.484878,-38.879116)"><g
       id="g55"
       transform="translate(3.8223939,-137.98842)"><path
         d="m 37.208582,184.4337 -1.831413,0.0196 c -0.09935,0.33684 -0.37256,0.59664 -0.714685,0.68316 0.06069,1.61272 0.374691,2.82475 0.890385,3.72691 0.596145,1.0429 1.456853,1.68118 2.511474,2.07584 1.925235,0.72047 4.494704,0.61512 7.199561,0.60926 -0.874252,-0.0964 -1.853627,-0.27484 -2.804997,-0.60719 -0.7864,-0.27474 -1.554558,-0.65672 -2.224154,-1.18236 -0.295395,-0.20552 -0.561694,-0.43268 -0.783414,-0.68678 -0.467714,-0.46772 -0.769557,-1.0694 -0.964799,-1.68413 -0.24521,-0.65638 -0.389714,-1.40583 -0.395325,-2.26447 -0.321398,-0.10155 -0.572564,-0.36091 -0.662492,-0.68729 z"
         style="display:inline;fill:#00a8f3"
         id="path55" /><path
         d="m 41.427962,184.38978 -2.06499,0.0217 c -0.09503,0.38358 -0.411229,0.67977 -0.805636,0.74518 0.01353,1.41688 0.414482,2.48659 1.040247,3.30832 0.755705,0.99238 1.851018,1.63017 3.015837,2.03709 1.645983,0.57502 3.392275,0.67673 4.46691,0.68316 -1.348764,-0.47947 -2.48428,-1.10509 -3.330546,-1.97042 -0.986974,-1.00921 -1.560025,-2.34386 -1.614371,-4.08141 -0.352651,-0.098 -0.626858,-0.38407 -0.707451,-0.74362 z"
         style="baseline-shift:baseline;display:inline;overflow:visible;vector-effect:none;fill:#02638f;enable-background:accumulate;stop-color:#000000;stop-opacity:1"
         id="path53" /><path
         d="m 44.899068,184.35361 -1.515153,0.016 c -0.07958,0.3931 -0.389956,0.70278 -0.783415,0.78135 0.05271,1.62307 0.579216,2.81509 1.481564,3.73776 0.853259,0.87248 2.063102,1.50467 3.538802,1.98696 0.416197,0.10234 0.784822,0.17308 1.056783,0.22737 -0.289306,-0.0843 -1.601401,-0.60184 -2.368848,-2.67115 -0.456406,-1.23064 -0.514812,-2.4745 -0.490409,-3.2675 -0.460438,-0.0294 -0.83695,-0.36679 -0.919324,-0.8108 z m 3.778581,6.74945 c 0.07029,0.0205 0.08205,0.0162 0.0088,0.002 -0.0026,-5.2e-4 -0.0062,-0.001 -0.0088,-0.002 z"
         style="baseline-shift:baseline;display:inline;overflow:visible;vector-effect:none;fill:#002535;enable-background:accumulate;stop-color:#000000;stop-opacity:1"
         id="path52" /><path
         d="m 43.025281,176.86827 c -1.860545,0.008 -3.576747,0.098 -4.960938,0.61599 -1.054621,0.39467 -1.915329,1.03552 -2.511474,2.07842 -0.506564,0.88618 -0.817834,2.07242 -0.886251,3.64267 0.373685,0.0963 0.66436,0.39954 0.734839,0.7829 l 2.011763,-0.0212 c 0.07351,-0.35619 0.336654,-0.64312 0.679029,-0.75086 0.0079,-1.20278 0.282601,-2.19482 0.737422,-3.00757 0.04422,-0.0832 0.09163,-0.16496 0.141594,-0.24495 0.0066,-0.0104 0.01348,-0.0206 0.02015,-0.031 0.05949,-0.0932 0.121699,-0.18423 0.189653,-0.27182 0.01563,-0.0212 0.02957,-0.0442 0.04547,-0.0651 0.828371,-1.08779 2.01022,-1.76827 3.232361,-2.19522 0.733321,-0.25618 1.483359,-0.41967 2.190047,-0.52658 -0.274083,-0.002 -0.548221,-0.003 -0.818038,-0.005 -0.271138,-0.001 -0.539843,-0.002 -0.805635,-0.001 z"
         style="display:inline;fill:#00a8f3"
         id="path51" /><path
         d="m 46.980595,177.15766 c -1.081626,0.0122 -2.770535,0.12435 -4.367175,0.68213 -1.164819,0.40693 -2.260132,1.04472 -3.015837,2.03709 -0.625496,0.82139 -1.025884,1.89079 -1.03973,3.30677 0.399968,0.0666 0.719504,0.3706 0.809253,0.76223 l 2.067057,-0.0217 c 0.08778,-0.34723 0.357203,-0.62167 0.70125,-0.71726 0.04802,-1.75319 0.621167,-3.09736 1.614371,-4.11293 0.825337,-0.84393 1.925793,-1.46095 3.230811,-1.93632 z"
         style="baseline-shift:baseline;display:inline;overflow:visible;vector-effect:none;fill:#02638f;enable-background:accumulate;stop-color:#000000;stop-opacity:1"
         id="path49" /><path
         d="m 48.577397,177.15043 c -1.915227,0.51039 -3.464252,1.21325 -4.495333,2.26756 -0.908688,0.92915 -1.436721,2.13076 -1.483114,3.77135 0.371437,0.0736 0.668681,0.35285 0.768429,0.71416 l 1.55546,-0.0165 c 0.116492,-0.39495 0.471091,-0.68509 0.897103,-0.71159 -0.02942,-0.78908 0.02024,-2.06904 0.488859,-3.33261 0.699668,-1.88656 1.850923,-2.5183 2.268596,-2.69234 z"
         style="baseline-shift:baseline;display:inline;overflow:visible;vector-effect:none;fill:#002535;enable-background:accumulate;stop-color:#000000;stop-opacity:1"
         id="path48" /></g><path
       style="font-size:8.46667px;line-height:1.25;font-family:MetroDF;-inkscape-font-specification:MetroDF;fill:#002535;stroke-width:0.265"
       d="m 60.803879,47.333025 q 0,1.176867 -0.719667,1.583267 -0.516467,0.296333 -1.786467,0.296333 h -1.752601 q -1.651001,0 -2.184401,-0.635 -0.474134,-0.5588 -0.474134,-2.243667 0,-1.270001 0.169334,-1.837268 0.2032,-0.6858 0.7874,-0.973667 0.5842,-0.287867 1.811868,-0.287867 h 1.634067 q 1.2446,0 1.778001,0.304801 0.728133,0.4064 0.728133,1.5494 h -1.032934 q 0.0085,-0.880534 -1.507067,-0.880534 h -1.591734 q -1.1938,0 -1.515534,0.431801 -0.245533,0.3302 -0.245533,1.5748 0,0.914401 0.05927,1.210734 0.08467,0.4572 0.4318,0.643467 0.347133,0.186267 1.1684,0.186267 h 1.701801 q 0.719667,0 1.016,-0.118534 0.499534,-0.194733 0.491067,-0.804333 z m 5.596474,1.871134 h -5.029202 v -5.935136 h 1.007533 v 5.029202 h 4.021669 z m 7.222069,-1.752601 q 0,1.134534 -0.7366,1.481667 -0.550334,0.270934 -2.192868,0.270934 H 69.38062 q -1.2446,0 -1.811867,-0.211667 -0.618067,-0.2286 -0.855134,-0.846667 -0.211666,-0.567267 -0.211666,-1.811867 0,-1.337734 0.186266,-1.913468 0.211667,-0.677333 0.821267,-0.931333 0.584201,-0.245534 1.888068,-0.245534 h 1.312334 q 1.566334,0 2.252134,0.448734 0.643467,0.414866 0.643467,1.2954 h -0.956734 q 0,-0.567267 -0.541867,-0.7366 -0.347133,-0.1016 -1.439334,-0.1016 h -1.210733 q -1.210734,0 -1.566334,0.2286 -0.440267,0.287867 -0.448734,1.337734 v 0.855133 q -0.0085,1.185334 0.423334,1.498601 0.338666,0.245533 1.566334,0.245533 h 1.2446 q 1.1176,0 1.447801,-0.1016 0.541866,-0.160866 0.5334,-0.762 z M 71.463421,46.571024 H 67.42482 l 0.0085,-0.8636 h 4.030135 z m 4.06401,-0.880533 h 4.834468 q -0.0085,-1.007534 -0.414867,-1.286934 -0.321733,-0.2286 -1.405467,-0.2286 h -1.210734 q -1.0668,0 -1.388533,0.237067 -0.406401,0.287866 -0.414867,1.278467 z m 4.842935,0.897467 h -4.842935 v 2.616201 h -1.007534 v -3.522135 q 0,-1.473201 0.618067,-1.972734 0.541867,-0.440267 2.057401,-0.440267 h 1.4986 q 1.490134,0 2.048934,0.448734 0.635001,0.508 0.635001,1.964267 v 3.522135 h -1.007534 z m 8.813804,2.616201 h -0.999067 v -1.083734 q 0,-0.635 -0.262467,-0.9144 -0.254,-0.2794 -0.889001,-0.2794 l -3.454401,0.0085 v 2.269068 h -0.973667 v -5.935136 h 4.343402 q 1.075267,0 1.5494,0.414867 0.499534,0.448733 0.499534,1.507067 0,0.965201 -0.541867,1.227667 0.728134,0.194734 0.728134,1.303868 z m -2.142068,-4.919136 h -3.462868 v 1.634068 h 3.462868 q 0.973667,0 0.973667,-0.846667 0,-0.787401 -0.973667,-0.787401 z m 8.661402,4.919136 v -3.564468 q 0,-0.702734 -0.440267,-1.092201 -0.4318,-0.397933 -1.151467,-0.397933 h -1.236134 q -0.6858,0 -1.143,0.414867 -0.4572,0.4064 -0.4572,1.075267 v 3.564468 h -1.007534 v -5.935136 h 1.007534 v 0.778934 q 0.541867,-0.778934 1.6002,-0.778934 h 1.236134 q 1.227667,0 1.913468,0.643467 0.6858,0.635 0.6858,1.854201 v 3.437468 z m 9.211736,-1.752601 q 0,1.134534 -0.7366,1.481667 -0.55033,0.270934 -2.19286,0.270934 h -1.31234 q -1.244598,0 -1.811865,-0.211667 -0.618067,-0.2286 -0.855134,-0.846667 -0.211666,-0.567267 -0.211666,-1.811867 0,-1.337734 0.186266,-1.913468 0.211667,-0.677333 0.821267,-0.931333 0.584201,-0.245534 1.888072,-0.245534 h 1.31233 q 1.56633,0 2.25213,0.448734 0.64347,0.414866 0.64347,1.2954 h -0.95673 q 0,-0.567267 -0.54187,-0.7366 -0.34713,-0.1016 -1.43933,-0.1016 h -1.21074 q -1.210731,0 -1.566332,0.2286 -0.440266,0.287867 -0.448733,1.337734 v 0.855133 q -0.0085,1.185334 0.423333,1.498601 0.338667,0.245533 1.566332,0.245533 h 1.2446 q 1.1176,0 1.4478,-0.1016 0.54187,-0.160866 0.5334,-0.762 z m -2.159,-0.880534 h -4.038598 l 0.0085,-0.8636 h 4.030132 z m 8.74608,-2.396067 h -2.67547 v 5.029202 h -1.00753 v -5.029202 h -2.667 v -0.905934 h 6.35 z"
       id="text19-48"
       aria-label="CLEARNET" /><path
       style="font-size:8.46667px;line-height:1.25;font-family:MetroDF;-inkscape-font-specification:MetroDF;fill:#00a8f3;stroke-width:0.264583"
       d="m 118.40457,49.191463 h -5.02921 v -5.935135 h 1.00754 v 5.029202 h 4.02167 z m 1.43933,-3.513668 h 4.83447 q -0.008,-1.007533 -0.41487,-1.286933 -0.32173,-0.228601 -1.40546,-0.228601 h -1.21074 q -1.0668,0 -1.38853,0.237067 -0.4064,0.287867 -0.41487,1.278467 z m 4.84294,0.897467 h -4.84294 v 2.616201 h -1.00753 v -3.522134 q 0,-1.473201 0.61806,-1.972734 0.54187,-0.440267 2.0574,-0.440267 h 1.49861 q 1.49013,0 2.04893,0.448733 0.635,0.508 0.635,1.964268 v 3.522134 h -1.00753 z m 6.82413,2.616201 h -4.7498 v -5.935135 h 4.3688 q 0.89747,0 1.35467,0.2794 0.5588,0.3556 0.5588,1.202267 0,0.4826 -0.0677,0.7366 -0.11007,0.397934 -0.44027,0.558801 0.8128,0.2286 0.8128,1.413933 0,0.948267 -0.44027,1.346201 -0.44026,0.397933 -1.397,0.397933 z m -0.37253,-5.046135 h -3.36974 v 1.490134 h 3.3782 q 0.89747,0 0.89747,-0.728134 0,-0.762 -0.90593,-0.762 z m 0.2032,2.387601 h -3.57294 v 1.761067 h 3.61527 q 0.9652,0 0.9652,-0.9144 0,-0.846667 -1.00753,-0.846667 z m 9.68587,0.9144 q 0,0.982134 -0.508,1.388534 -0.44873,0.3556 -1.4478,0.3556 h -2.9718 q -1.9558,0 -1.94734,-1.684867 h 1.02447 q 0,0.778934 1.10067,0.778934 h 2.5654 q 0.5334,0 0.79587,-0.143934 0.34713,-0.194733 0.34713,-0.694267 0,-0.567266 -0.60113,-0.770467 -0.36407,-0.127 -1.07527,-0.127 -0.28787,0 -0.85514,0.0254 -0.56726,0.01693 -0.85513,0.01693 -1.12607,0 -1.69333,-0.2794 -0.7874,-0.397934 -0.7874,-1.405468 0,-0.9144 0.54186,-1.312333 0.46567,-0.338667 1.4224,-0.338667 h 2.82787 q 2.09127,0 2.09127,1.6764 h -1.0668 q 0,-0.778933 -1.1176,-0.778933 h -2.667 q -0.92287,0 -0.92287,0.770467 0,0.804333 1.68487,0.804333 0.26246,0 0.77893,-0.0254 0.52493,-0.03387 0.7874,-0.03387 1.15147,0 1.74414,0.313267 0.80433,0.423333 0.80433,1.464733 z"
       id="text1-5"
       aria-label="LABS" /></g></svg>
